<svg width="21" height="22" viewBox="0 0 21 22" fill="none" xmlns="http://www.w3.org/2000/svg">
<path fill-rule="evenodd" clip-rule="evenodd" d="M17.0128 2.97596C15.3355 1.7153 13.2509 0.968262 10.9937 0.968262C5.45683 0.968262 0.961914 5.46318 0.961914 11.0001C0.961914 16.537 5.45683 21.0319 10.9937 21.0319C16.2711 21.0319 20.6015 16.9476 20.9961 11.7705C21.0523 11.0342 20.5005 10.3915 19.7642 10.3353C19.0279 10.2791 18.3851 10.8309 18.329 11.5672C18.0394 15.3632 14.8633 18.3567 10.9937 18.3567C6.93351 18.3567 3.63706 15.0603 3.63706 11.0001C3.63706 6.93986 6.93351 3.64341 10.9937 3.64341C12.5667 3.64341 14.0253 4.13831 15.2218 4.98098H14.3377C13.5993 4.98098 13.0001 5.58022 13.0001 6.31856C13.0001 7.0569 13.5993 7.65613 14.3377 7.65613H18.3504C19.0894 7.65613 19.688 7.05757 19.688 6.31856V2.30584C19.688 1.56749 19.0887 0.968262 18.3504 0.968262C17.612 0.968262 17.0128 1.56749 17.0128 2.30584V2.97596Z" fill="#AFAFAF"/>
</svg>
